# Kiyik — tools/make_deer.py
mtllib deer.mtl
v -0.2100 0.7200 -0.5500
v 0.2100 0.7200 -0.5500
v 0.2100 1.1800 -0.5500
v -0.2100 1.1800 -0.5500
v -0.2100 0.7200 0.5500
v 0.2100 0.7200 0.5500
v 0.2100 1.1800 0.5500
v -0.2100 1.1800 0.5500
v -0.1000 0.9849 0.6503
v 0.1000 0.9849 0.6503
v 0.1000 1.3289 0.4094
v -0.1000 1.3289 0.4094
v -0.1000 1.1111 0.8306
v 0.1000 1.1111 0.8306
v 0.1000 1.4551 0.5897
v -0.1000 1.4551 0.5897
v -0.1000 1.3200 0.6900
v 0.1000 1.3200 0.6900
v 0.1000 1.5200 0.6900
v -0.1000 1.5200 0.6900
v -0.1000 1.3200 1.0300
v 0.1000 1.3200 1.0300
v 0.1000 1.5200 1.0300
v -0.1000 1.5200 1.0300
v -0.0600 1.3200 1.0000
v 0.0600 1.3200 1.0000
v 0.0600 1.4400 1.0000
v -0.0600 1.4400 1.0000
v -0.0600 1.3200 1.1200
v 0.0600 1.3200 1.1200
v 0.0600 1.4400 1.1200
v -0.0600 1.4400 1.1200
v -0.1450 1.4900 0.7600
v -0.0950 1.4900 0.7600
v -0.0950 1.6100 0.7600
v -0.1450 1.6100 0.7600
v -0.1450 1.4900 0.8400
v -0.0950 1.4900 0.8400
v -0.0950 1.6100 0.8400
v -0.1450 1.6100 0.8400
v 0.0950 1.4900 0.7600
v 0.1450 1.4900 0.7600
v 0.1450 1.6100 0.7600
v 0.0950 1.6100 0.7600
v 0.0950 1.4900 0.8400
v 0.1450 1.4900 0.8400
v 0.1450 1.6100 0.8400
v 0.0950 1.6100 0.8400
v -0.1100 1.5300 0.7800
v -0.0700 1.5300 0.7800
v -0.0700 1.7900 0.7800
v -0.1100 1.7900 0.7800
v -0.1100 1.5300 0.8200
v -0.0700 1.5300 0.8200
v -0.0700 1.7900 0.8200
v -0.1100 1.7900 0.8200
v -0.2200 1.7600 0.7800
v -0.0600 1.7600 0.7800
v -0.0600 1.8000 0.7800
v -0.2200 1.8000 0.7800
v -0.2200 1.7600 0.8200
v -0.0600 1.7600 0.8200
v -0.0600 1.8000 0.8200
v -0.2200 1.8000 0.8200
v -0.2200 1.7800 0.7800
v -0.1800 1.7800 0.7800
v -0.1800 1.9400 0.7800
v -0.2200 1.9400 0.7800
v -0.2200 1.7800 0.8200
v -0.1800 1.7800 0.8200
v -0.1800 1.9400 0.8200
v -0.2200 1.9400 0.8200
v 0.0700 1.5300 0.7800
v 0.1100 1.5300 0.7800
v 0.1100 1.7900 0.7800
v 0.0700 1.7900 0.7800
v 0.0700 1.5300 0.8200
v 0.1100 1.5300 0.8200
v 0.1100 1.7900 0.8200
v 0.0700 1.7900 0.8200
v 0.0600 1.7600 0.7800
v 0.2200 1.7600 0.7800
v 0.2200 1.8000 0.7800
v 0.0600 1.8000 0.7800
v 0.0600 1.7600 0.8200
v 0.2200 1.7600 0.8200
v 0.2200 1.8000 0.8200
v 0.0600 1.8000 0.8200
v 0.1800 1.7800 0.7800
v 0.2200 1.7800 0.7800
v 0.2200 1.9400 0.7800
v 0.1800 1.9400 0.7800
v 0.1800 1.7800 0.8200
v 0.2200 1.7800 0.8200
v 0.2200 1.9400 0.8200
v 0.1800 1.9400 0.8200
v -0.1900 0.0000 -0.4500
v -0.0900 0.0000 -0.4500
v -0.0900 0.7200 -0.4500
v -0.1900 0.7200 -0.4500
v -0.1900 0.0000 -0.3500
v -0.0900 0.0000 -0.3500
v -0.0900 0.7200 -0.3500
v -0.1900 0.7200 -0.3500
v -0.1900 0.0000 0.3500
v -0.0900 0.0000 0.3500
v -0.0900 0.7200 0.3500
v -0.1900 0.7200 0.3500
v -0.1900 0.0000 0.4500
v -0.0900 0.0000 0.4500
v -0.0900 0.7200 0.4500
v -0.1900 0.7200 0.4500
v 0.0900 0.0000 -0.4500
v 0.1900 0.0000 -0.4500
v 0.1900 0.7200 -0.4500
v 0.0900 0.7200 -0.4500
v 0.0900 0.0000 -0.3500
v 0.1900 0.0000 -0.3500
v 0.1900 0.7200 -0.3500
v 0.0900 0.7200 -0.3500
v 0.0900 0.0000 0.3500
v 0.1900 0.0000 0.3500
v 0.1900 0.7200 0.3500
v 0.0900 0.7200 0.3500
v 0.0900 0.0000 0.4500
v 0.1900 0.0000 0.4500
v 0.1900 0.7200 0.4500
v 0.0900 0.7200 0.4500
v -0.0400 1.0000 -0.6300
v 0.0400 1.0000 -0.6300
v 0.0400 1.1000 -0.6300
v -0.0400 1.1000 -0.6300
v -0.0400 1.0000 -0.5300
v 0.0400 1.0000 -0.5300
v 0.0400 1.1000 -0.5300
v -0.0400 1.1000 -0.5300
vn 0.0000 0.0000 -1.0000
vn 0.0000 0.0000 1.0000
vn 0.0000 -1.0000 0.0000
vn 0.0000 1.0000 0.0000
vn -1.0000 0.0000 0.0000
vn 1.0000 0.0000 0.0000
vn 0.0000 -0.5736 -0.8192
vn 0.0000 0.5736 0.8192
vn 0.0000 -0.8192 0.5736
vn 0.0000 0.8192 -0.5736
vn -1.0000 0.0000 0.0000
vn 1.0000 0.0000 0.0000
vn 0.0000 0.0000 -1.0000
vn 0.0000 0.0000 1.0000
vn 0.0000 -1.0000 0.0000
vn 0.0000 1.0000 0.0000
vn -1.0000 0.0000 0.0000
vn 1.0000 0.0000 0.0000
vn 0.0000 0.0000 -1.0000
vn 0.0000 0.0000 1.0000
vn 0.0000 -1.0000 0.0000
vn 0.0000 1.0000 0.0000
vn -1.0000 0.0000 0.0000
vn 1.0000 0.0000 0.0000
vn 0.0000 0.0000 -1.0000
vn 0.0000 0.0000 1.0000
vn 0.0000 -1.0000 0.0000
vn 0.0000 1.0000 0.0000
vn -1.0000 0.0000 0.0000
vn 1.0000 0.0000 0.0000
vn 0.0000 0.0000 -1.0000
vn 0.0000 0.0000 1.0000
vn 0.0000 -1.0000 0.0000
vn 0.0000 1.0000 0.0000
vn -1.0000 0.0000 0.0000
vn 1.0000 0.0000 0.0000
vn 0.0000 0.0000 -1.0000
vn 0.0000 0.0000 1.0000
vn 0.0000 -1.0000 0.0000
vn 0.0000 1.0000 0.0000
vn -1.0000 0.0000 0.0000
vn 1.0000 0.0000 0.0000
vn 0.0000 0.0000 -1.0000
vn 0.0000 0.0000 1.0000
vn 0.0000 -1.0000 0.0000
vn 0.0000 1.0000 0.0000
vn -1.0000 0.0000 0.0000
vn 1.0000 0.0000 0.0000
vn 0.0000 0.0000 -1.0000
vn 0.0000 0.0000 1.0000
vn 0.0000 -1.0000 0.0000
vn 0.0000 1.0000 0.0000
vn -1.0000 0.0000 0.0000
vn 1.0000 0.0000 0.0000
vn 0.0000 0.0000 -1.0000
vn 0.0000 0.0000 1.0000
vn 0.0000 -1.0000 0.0000
vn 0.0000 1.0000 0.0000
vn -1.0000 0.0000 0.0000
vn 1.0000 0.0000 0.0000
vn 0.0000 0.0000 -1.0000
vn 0.0000 0.0000 1.0000
vn 0.0000 -1.0000 0.0000
vn 0.0000 1.0000 0.0000
vn -1.0000 0.0000 0.0000
vn 1.0000 0.0000 0.0000
vn 0.0000 0.0000 -1.0000
vn 0.0000 0.0000 1.0000
vn 0.0000 -1.0000 0.0000
vn 0.0000 1.0000 0.0000
vn -1.0000 0.0000 0.0000
vn 1.0000 0.0000 0.0000
vn 0.0000 0.0000 -1.0000
vn 0.0000 0.0000 1.0000
vn 0.0000 -1.0000 0.0000
vn 0.0000 1.0000 0.0000
vn -1.0000 0.0000 0.0000
vn 1.0000 0.0000 0.0000
vn 0.0000 0.0000 -1.0000
vn 0.0000 0.0000 1.0000
vn 0.0000 -1.0000 0.0000
vn 0.0000 1.0000 0.0000
vn -1.0000 0.0000 0.0000
vn 1.0000 0.0000 0.0000
vn 0.0000 0.0000 -1.0000
vn 0.0000 0.0000 1.0000
vn 0.0000 -1.0000 0.0000
vn 0.0000 1.0000 0.0000
vn -1.0000 0.0000 0.0000
vn 1.0000 0.0000 0.0000
vn 0.0000 0.0000 -1.0000
vn 0.0000 0.0000 1.0000
vn 0.0000 -1.0000 0.0000
vn 0.0000 1.0000 0.0000
vn -1.0000 0.0000 0.0000
vn 1.0000 0.0000 0.0000
vn 0.0000 0.0000 -1.0000
vn 0.0000 0.0000 1.0000
vn 0.0000 -1.0000 0.0000
vn 0.0000 1.0000 0.0000
vn -1.0000 0.0000 0.0000
vn 1.0000 0.0000 0.0000
vt 0 0
usemtl fur
f 1/1/1 4/1/1 3/1/1
f 1/1/1 3/1/1 2/1/1
f 5/1/2 6/1/2 7/1/2
f 5/1/2 7/1/2 8/1/2
f 1/1/3 2/1/3 6/1/3
f 1/1/3 6/1/3 5/1/3
f 4/1/4 8/1/4 7/1/4
f 4/1/4 7/1/4 3/1/4
f 1/1/5 5/1/5 8/1/5
f 1/1/5 8/1/5 4/1/5
f 2/1/6 3/1/6 7/1/6
f 2/1/6 7/1/6 6/1/6
f 9/1/7 12/1/7 11/1/7
f 9/1/7 11/1/7 10/1/7
f 13/1/8 14/1/8 15/1/8
f 13/1/8 15/1/8 16/1/8
f 9/1/9 10/1/9 14/1/9
f 9/1/9 14/1/9 13/1/9
f 12/1/10 16/1/10 15/1/10
f 12/1/10 15/1/10 11/1/10
f 9/1/11 13/1/11 16/1/11
f 9/1/11 16/1/11 12/1/11
f 10/1/12 11/1/12 15/1/12
f 10/1/12 15/1/12 14/1/12
f 17/1/13 20/1/13 19/1/13
f 17/1/13 19/1/13 18/1/13
f 21/1/14 22/1/14 23/1/14
f 21/1/14 23/1/14 24/1/14
f 17/1/15 18/1/15 22/1/15
f 17/1/15 22/1/15 21/1/15
f 20/1/16 24/1/16 23/1/16
f 20/1/16 23/1/16 19/1/16
f 17/1/17 21/1/17 24/1/17
f 17/1/17 24/1/17 20/1/17
f 18/1/18 19/1/18 23/1/18
f 18/1/18 23/1/18 22/1/18
usemtl dark
f 25/1/19 28/1/19 27/1/19
f 25/1/19 27/1/19 26/1/19
f 29/1/20 30/1/20 31/1/20
f 29/1/20 31/1/20 32/1/20
f 25/1/21 26/1/21 30/1/21
f 25/1/21 30/1/21 29/1/21
f 28/1/22 32/1/22 31/1/22
f 28/1/22 31/1/22 27/1/22
f 25/1/23 29/1/23 32/1/23
f 25/1/23 32/1/23 28/1/23
f 26/1/24 27/1/24 31/1/24
f 26/1/24 31/1/24 30/1/24
usemtl fur
f 33/1/25 36/1/25 35/1/25
f 33/1/25 35/1/25 34/1/25
f 37/1/26 38/1/26 39/1/26
f 37/1/26 39/1/26 40/1/26
f 33/1/27 34/1/27 38/1/27
f 33/1/27 38/1/27 37/1/27
f 36/1/28 40/1/28 39/1/28
f 36/1/28 39/1/28 35/1/28
f 33/1/29 37/1/29 40/1/29
f 33/1/29 40/1/29 36/1/29
f 34/1/30 35/1/30 39/1/30
f 34/1/30 39/1/30 38/1/30
f 41/1/31 44/1/31 43/1/31
f 41/1/31 43/1/31 42/1/31
f 45/1/32 46/1/32 47/1/32
f 45/1/32 47/1/32 48/1/32
f 41/1/33 42/1/33 46/1/33
f 41/1/33 46/1/33 45/1/33
f 44/1/34 48/1/34 47/1/34
f 44/1/34 47/1/34 43/1/34
f 41/1/35 45/1/35 48/1/35
f 41/1/35 48/1/35 44/1/35
f 42/1/36 43/1/36 47/1/36
f 42/1/36 47/1/36 46/1/36
usemtl antler
f 49/1/37 52/1/37 51/1/37
f 49/1/37 51/1/37 50/1/37
f 53/1/38 54/1/38 55/1/38
f 53/1/38 55/1/38 56/1/38
f 49/1/39 50/1/39 54/1/39
f 49/1/39 54/1/39 53/1/39
f 52/1/40 56/1/40 55/1/40
f 52/1/40 55/1/40 51/1/40
f 49/1/41 53/1/41 56/1/41
f 49/1/41 56/1/41 52/1/41
f 50/1/42 51/1/42 55/1/42
f 50/1/42 55/1/42 54/1/42
f 57/1/43 60/1/43 59/1/43
f 57/1/43 59/1/43 58/1/43
f 61/1/44 62/1/44 63/1/44
f 61/1/44 63/1/44 64/1/44
f 57/1/45 58/1/45 62/1/45
f 57/1/45 62/1/45 61/1/45
f 60/1/46 64/1/46 63/1/46
f 60/1/46 63/1/46 59/1/46
f 57/1/47 61/1/47 64/1/47
f 57/1/47 64/1/47 60/1/47
f 58/1/48 59/1/48 63/1/48
f 58/1/48 63/1/48 62/1/48
f 65/1/49 68/1/49 67/1/49
f 65/1/49 67/1/49 66/1/49
f 69/1/50 70/1/50 71/1/50
f 69/1/50 71/1/50 72/1/50
f 65/1/51 66/1/51 70/1/51
f 65/1/51 70/1/51 69/1/51
f 68/1/52 72/1/52 71/1/52
f 68/1/52 71/1/52 67/1/52
f 65/1/53 69/1/53 72/1/53
f 65/1/53 72/1/53 68/1/53
f 66/1/54 67/1/54 71/1/54
f 66/1/54 71/1/54 70/1/54
f 73/1/55 76/1/55 75/1/55
f 73/1/55 75/1/55 74/1/55
f 77/1/56 78/1/56 79/1/56
f 77/1/56 79/1/56 80/1/56
f 73/1/57 74/1/57 78/1/57
f 73/1/57 78/1/57 77/1/57
f 76/1/58 80/1/58 79/1/58
f 76/1/58 79/1/58 75/1/58
f 73/1/59 77/1/59 80/1/59
f 73/1/59 80/1/59 76/1/59
f 74/1/60 75/1/60 79/1/60
f 74/1/60 79/1/60 78/1/60
f 81/1/61 84/1/61 83/1/61
f 81/1/61 83/1/61 82/1/61
f 85/1/62 86/1/62 87/1/62
f 85/1/62 87/1/62 88/1/62
f 81/1/63 82/1/63 86/1/63
f 81/1/63 86/1/63 85/1/63
f 84/1/64 88/1/64 87/1/64
f 84/1/64 87/1/64 83/1/64
f 81/1/65 85/1/65 88/1/65
f 81/1/65 88/1/65 84/1/65
f 82/1/66 83/1/66 87/1/66
f 82/1/66 87/1/66 86/1/66
f 89/1/67 92/1/67 91/1/67
f 89/1/67 91/1/67 90/1/67
f 93/1/68 94/1/68 95/1/68
f 93/1/68 95/1/68 96/1/68
f 89/1/69 90/1/69 94/1/69
f 89/1/69 94/1/69 93/1/69
f 92/1/70 96/1/70 95/1/70
f 92/1/70 95/1/70 91/1/70
f 89/1/71 93/1/71 96/1/71
f 89/1/71 96/1/71 92/1/71
f 90/1/72 91/1/72 95/1/72
f 90/1/72 95/1/72 94/1/72
usemtl dark
f 97/1/73 100/1/73 99/1/73
f 97/1/73 99/1/73 98/1/73
f 101/1/74 102/1/74 103/1/74
f 101/1/74 103/1/74 104/1/74
f 97/1/75 98/1/75 102/1/75
f 97/1/75 102/1/75 101/1/75
f 100/1/76 104/1/76 103/1/76
f 100/1/76 103/1/76 99/1/76
f 97/1/77 101/1/77 104/1/77
f 97/1/77 104/1/77 100/1/77
f 98/1/78 99/1/78 103/1/78
f 98/1/78 103/1/78 102/1/78
f 105/1/79 108/1/79 107/1/79
f 105/1/79 107/1/79 106/1/79
f 109/1/80 110/1/80 111/1/80
f 109/1/80 111/1/80 112/1/80
f 105/1/81 106/1/81 110/1/81
f 105/1/81 110/1/81 109/1/81
f 108/1/82 112/1/82 111/1/82
f 108/1/82 111/1/82 107/1/82
f 105/1/83 109/1/83 112/1/83
f 105/1/83 112/1/83 108/1/83
f 106/1/84 107/1/84 111/1/84
f 106/1/84 111/1/84 110/1/84
f 113/1/85 116/1/85 115/1/85
f 113/1/85 115/1/85 114/1/85
f 117/1/86 118/1/86 119/1/86
f 117/1/86 119/1/86 120/1/86
f 113/1/87 114/1/87 118/1/87
f 113/1/87 118/1/87 117/1/87
f 116/1/88 120/1/88 119/1/88
f 116/1/88 119/1/88 115/1/88
f 113/1/89 117/1/89 120/1/89
f 113/1/89 120/1/89 116/1/89
f 114/1/90 115/1/90 119/1/90
f 114/1/90 119/1/90 118/1/90
f 121/1/91 124/1/91 123/1/91
f 121/1/91 123/1/91 122/1/91
f 125/1/92 126/1/92 127/1/92
f 125/1/92 127/1/92 128/1/92
f 121/1/93 122/1/93 126/1/93
f 121/1/93 126/1/93 125/1/93
f 124/1/94 128/1/94 127/1/94
f 124/1/94 127/1/94 123/1/94
f 121/1/95 125/1/95 128/1/95
f 121/1/95 128/1/95 124/1/95
f 122/1/96 123/1/96 127/1/96
f 122/1/96 127/1/96 126/1/96
usemtl light
f 129/1/97 132/1/97 131/1/97
f 129/1/97 131/1/97 130/1/97
f 133/1/98 134/1/98 135/1/98
f 133/1/98 135/1/98 136/1/98
f 129/1/99 130/1/99 134/1/99
f 129/1/99 134/1/99 133/1/99
f 132/1/100 136/1/100 135/1/100
f 132/1/100 135/1/100 131/1/100
f 129/1/101 133/1/101 136/1/101
f 129/1/101 136/1/101 132/1/101
f 130/1/102 131/1/102 135/1/102
f 130/1/102 135/1/102 134/1/102
